<svg width="150" height="174" viewBox="0 0 150 174" fill="none" xmlns="http://www.w3.org/2000/svg">
<rect width="150" height="150" rx="36" fill="url(#paint0_linear)"/>
<path d="M77.7607 131.43V98.5364L119.164 74.0213V106.532L77.7607 131.43Z" fill="url(#paint1_linear)" stroke="white" stroke-width="6"/>
<path d="M31.5996 104.641V74.489L71.7606 98.527V131.159L31.5996 104.641Z" fill="url(#paint2_linear)" stroke="white" stroke-width="6"/>
<rect x="31.5996" y="40.1822" width="8.49" height="20.3136" stroke="white" stroke-width="6"/>
<path d="M75.225 91.655L24.2814 60.8355L75.2252 37.1941L126.102 60.8354L75.225 91.655Z" fill="url(#paint3_linear)" stroke="white" stroke-width="6"/>
<rect x="126.215" y="88.7672" width="3.94337" height="12.1523" fill="url(#paint4_linear)" stroke="white" stroke-width="3.94337"/>
<rect x="127.374" y="61.1645" width="1.62374" height="24.8192" fill="url(#paint5_linear)" stroke="white" stroke-width="1.62374"/>
<path d="M10.876 168.599C10.876 168.147 10.7148 167.796 10.3926 167.544C10.0762 167.292 9.5166 167.031 8.71387 166.762C7.91113 166.492 7.25488 166.231 6.74512 165.979C5.08691 165.165 4.25781 164.046 4.25781 162.622C4.25781 161.913 4.46289 161.289 4.87305 160.75C5.28906 160.205 5.875 159.783 6.63086 159.484C7.38672 159.18 8.23633 159.027 9.17969 159.027C10.0996 159.027 10.9229 159.191 11.6494 159.52C12.3818 159.848 12.9502 160.316 13.3545 160.926C13.7588 161.529 13.9609 162.221 13.9609 163H10.8848C10.8848 162.479 10.7236 162.074 10.4014 161.787C10.085 161.5 9.6543 161.356 9.10938 161.356C8.55859 161.356 8.12207 161.479 7.7998 161.726C7.4834 161.966 7.3252 162.273 7.3252 162.648C7.3252 162.977 7.50098 163.275 7.85254 163.545C8.2041 163.809 8.82227 164.084 9.70703 164.371C10.5918 164.652 11.3184 164.957 11.8867 165.285C13.2695 166.082 13.9609 167.181 13.9609 168.581C13.9609 169.7 13.5391 170.579 12.6953 171.218C11.8516 171.856 10.6943 172.176 9.22363 172.176C8.18652 172.176 7.24609 171.991 6.40234 171.622C5.56445 171.247 4.93164 170.737 4.50391 170.093C4.08203 169.442 3.87109 168.695 3.87109 167.852H6.96484C6.96484 168.537 7.14062 169.044 7.49219 169.372C7.84961 169.694 8.42676 169.855 9.22363 169.855C9.7334 169.855 10.1348 169.747 10.4277 169.53C10.7266 169.308 10.876 168.997 10.876 168.599ZM25.5889 161.585H21.748V172H18.6631V161.585H14.8926V159.203H25.5889V161.585ZM36.9355 159.203V167.579C36.9355 168.528 36.7334 169.352 36.3291 170.049C35.9248 170.74 35.3447 171.268 34.5889 171.631C33.833 171.994 32.9395 172.176 31.9082 172.176C30.3496 172.176 29.1221 171.771 28.2256 170.963C27.3291 170.154 26.8721 169.047 26.8545 167.641V159.203H29.957V167.702C29.9922 169.103 30.6426 169.803 31.9082 169.803C32.5469 169.803 33.0303 169.627 33.3584 169.275C33.6865 168.924 33.8506 168.353 33.8506 167.562V159.203H36.9355ZM38.8691 172V159.203H42.9912C44.1221 159.203 45.1387 159.461 46.041 159.977C46.9434 160.486 47.6465 161.21 48.1504 162.147C48.6602 163.079 48.918 164.125 48.9238 165.285V165.874C48.9238 167.046 48.6748 168.098 48.1768 169.029C47.6846 169.955 46.9873 170.682 46.085 171.209C45.1885 171.73 44.1865 171.994 43.0791 172H38.8691ZM41.9541 161.585V169.627H43.0264C43.9111 169.627 44.5908 169.313 45.0654 168.687C45.54 168.054 45.7773 167.116 45.7773 165.874V165.32C45.7773 164.084 45.54 163.152 45.0654 162.525C44.5908 161.898 43.8994 161.585 42.9912 161.585H41.9541ZM58.4424 166.577H53.5908V169.627H59.3213V172H50.5059V159.203H59.3389V161.585H53.5908V164.283H58.4424V166.577ZM71.2656 172H68.1982L63.6631 164.037V172H60.5781V159.203H63.6631L68.1895 167.166V159.203H71.2656V172ZM82.999 161.585H79.1582V172H76.0732V161.585H72.3027V159.203H82.999V161.585ZM98.96 172H95.8926V166.656H91.3486V172H88.2637V159.203H91.3486V164.283H95.8926V159.203H98.96V172ZM111.757 165.865C111.757 167.113 111.525 168.218 111.062 169.179C110.6 170.14 109.94 170.881 109.085 171.402C108.235 171.918 107.266 172.176 106.176 172.176C105.086 172.176 104.119 171.927 103.275 171.429C102.432 170.925 101.772 170.207 101.298 169.275C100.829 168.344 100.583 167.274 100.56 166.067V165.347C100.56 164.093 100.788 162.988 101.245 162.033C101.708 161.072 102.367 160.331 103.223 159.81C104.084 159.288 105.062 159.027 106.158 159.027C107.242 159.027 108.209 159.285 109.059 159.801C109.908 160.316 110.567 161.052 111.036 162.007C111.511 162.956 111.751 164.046 111.757 165.276V165.865ZM108.619 165.329C108.619 164.058 108.405 163.094 107.978 162.438C107.556 161.775 106.949 161.444 106.158 161.444C104.611 161.444 103.794 162.604 103.706 164.925L103.697 165.865C103.697 167.119 103.905 168.083 104.321 168.757C104.737 169.431 105.355 169.768 106.176 169.768C106.955 169.768 107.556 169.437 107.978 168.774C108.399 168.112 108.613 167.16 108.619 165.918V165.329ZM123.385 159.203V167.579C123.385 168.528 123.183 169.352 122.778 170.049C122.374 170.74 121.794 171.268 121.038 171.631C120.282 171.994 119.389 172.176 118.357 172.176C116.799 172.176 115.571 171.771 114.675 170.963C113.778 170.154 113.321 169.047 113.304 167.641V159.203H116.406V167.702C116.441 169.103 117.092 169.803 118.357 169.803C118.996 169.803 119.479 169.627 119.808 169.275C120.136 168.924 120.3 168.353 120.3 167.562V159.203H123.385ZM131.919 168.599C131.919 168.147 131.758 167.796 131.436 167.544C131.119 167.292 130.56 167.031 129.757 166.762C128.954 166.492 128.298 166.231 127.788 165.979C126.13 165.165 125.301 164.046 125.301 162.622C125.301 161.913 125.506 161.289 125.916 160.75C126.332 160.205 126.918 159.783 127.674 159.484C128.43 159.18 129.279 159.027 130.223 159.027C131.143 159.027 131.966 159.191 132.692 159.52C133.425 159.848 133.993 160.316 134.397 160.926C134.802 161.529 135.004 162.221 135.004 163H131.928C131.928 162.479 131.767 162.074 131.444 161.787C131.128 161.5 130.697 161.356 130.152 161.356C129.602 161.356 129.165 161.479 128.843 161.726C128.526 161.966 128.368 162.273 128.368 162.648C128.368 162.977 128.544 163.275 128.896 163.545C129.247 163.809 129.865 164.084 130.75 164.371C131.635 164.652 132.361 164.957 132.93 165.285C134.312 166.082 135.004 167.181 135.004 168.581C135.004 169.7 134.582 170.579 133.738 171.218C132.895 171.856 131.737 172.176 130.267 172.176C129.229 172.176 128.289 171.991 127.445 171.622C126.607 171.247 125.975 170.737 125.547 170.093C125.125 169.442 124.914 168.695 124.914 167.852H128.008C128.008 168.537 128.184 169.044 128.535 169.372C128.893 169.694 129.47 169.855 130.267 169.855C130.776 169.855 131.178 169.747 131.471 169.53C131.77 169.308 131.919 168.997 131.919 168.599ZM144.522 166.577H139.671V169.627H145.401V172H136.586V159.203H145.419V161.585H139.671V164.283H144.522V166.577Z" fill="#346780"/>
<defs>
<linearGradient id="paint0_linear" x1="135.625" y1="-4.52483e-07" x2="-52.625" y2="193.875" gradientUnits="userSpaceOnUse">
<stop offset="0.296875" stop-color="#346780"/>
<stop offset="1" stop-color="#72CFC1" stop-opacity="0"/>
</linearGradient>
<linearGradient id="paint1_linear" x1="98.4622" y1="68.7585" x2="98.4622" y2="136.735" gradientUnits="userSpaceOnUse">
<stop offset="0.229167" stop-color="#346780"/>
<stop offset="1" stop-color="#72CFC1" stop-opacity="0"/>
</linearGradient>
<linearGradient id="paint2_linear" x1="51.6801" y1="69.197" x2="51.6801" y2="136.735" gradientUnits="userSpaceOnUse">
<stop offset="0.229167" stop-color="#346780"/>
<stop offset="1" stop-color="#72CFC1" stop-opacity="0"/>
</linearGradient>
<linearGradient id="paint3_linear" x1="46.7193" y1="37.0177" x2="92.9089" y2="92.9333" gradientUnits="userSpaceOnUse">
<stop offset="0.229167" stop-color="#346780"/>
<stop offset="1" stop-color="#72CFC1" stop-opacity="0"/>
</linearGradient>
<linearGradient id="paint4_linear" x1="128.187" y1="86.7955" x2="128.187" y2="102.891" gradientUnits="userSpaceOnUse">
<stop offset="0.229167" stop-color="#346780"/>
<stop offset="1" stop-color="#72CFC1" stop-opacity="0"/>
</linearGradient>
<linearGradient id="paint5_linear" x1="128.186" y1="60.3526" x2="128.186" y2="86.7955" gradientUnits="userSpaceOnUse">
<stop offset="0.229167" stop-color="#346780"/>
<stop offset="1" stop-color="#72CFC1" stop-opacity="0"/>
</linearGradient>
</defs>
</svg>
